<?xml version="1.0" standalone="no"?>
<!DOCTYPE svg PUBLIC "-//W3C//DTD SVG 20010904//EN"
 "http://www.w3.org/TR/2001/REC-SVG-20010904/DTD/svg10.dtd">
<svg version="1.0" xmlns="http://www.w3.org/2000/svg"
 width="249.000000pt" height="249.000000pt" viewBox="0 0 249.000000 249.000000"
 preserveAspectRatio="xMidYMid meet">
<metadata>
Created by potrace 1.14, written by Peter Selinger 2001-2017
</metadata>
<g transform="translate(0.000000,249.000000) scale(0.100000,-0.100000)"
fill="#000000" stroke="none">
<path d="M1524 2416 c-3 -7 -6 -24 -8 -38 -1 -13 -6 -30 -10 -37 -4 -7 -6 -15
-3 -17 3 -3 1 -20 -4 -37 -9 -31 -19 -78 -21 -104 -1 -8 -26 -12 -82 -11 -238
2 -441 -118 -518 -307 -43 -104 -49 -180 -24 -295 19 -87 125 -209 256 -295
90 -59 121 -85 114 -97 -3 -4 -14 -41 -25 -81 -11 -39 -22 -79 -26 -87 -3 -8
-7 -19 -8 -25 -5 -18 -66 -210 -72 -225 -4 -8 -7 -17 -8 -20 -7 -29 -29 -87
-35 -93 -8 -9 -104 36 -128 59 -7 8 -16 14 -20 14 -22 0 -151 129 -187 185
-48 78 -80 159 -69 176 3 5 -1 9 -8 9 -14 0 -48 -20 -35 -20 5 0 -3 -13 -16
-30 -28 -33 -66 -126 -73 -177 -2 -18 -5 -36 -6 -40 -3 -14 14 -87 25 -108 6
-11 10 -23 9 -27 -1 -5 3 -8 10 -8 6 0 9 -3 5 -6 -11 -11 124 -151 176 -182
15 -9 27 -20 27 -24 0 -4 5 -8 10 -8 6 0 35 -16 65 -35 30 -19 55 -32 55 -29
0 3 13 -4 30 -16 l29 -21 -20 -52 c-11 -29 -25 -58 -31 -64 -6 -7 -7 -13 -2
-13 5 0 4 -4 -1 -8 -11 -7 -32 -50 -33 -66 0 -5 -5 -12 -12 -16 -27 -17 -7
-91 28 -105 24 -9 38 11 107 151 71 142 71 143 135 124 66 -20 105 -24 205
-24 106 0 142 4 163 18 7 4 16 6 18 3 15 -14 160 72 211 125 63 66 73 78 79
103 3 14 10 25 15 25 5 0 9 9 9 19 0 11 4 22 9 25 5 3 12 23 16 43 5 21 10 45
12 53 6 27 10 150 5 155 -3 2 -6 23 -8 46 -9 95 -122 252 -234 325 -25 16 -47
32 -50 35 -3 3 -31 21 -62 38 -64 36 -85 56 -68 66 6 3 8 11 5 16 -4 5 -3 15
2 22 4 6 8 17 8 22 1 6 7 23 13 39 7 16 14 36 16 45 2 9 6 23 9 31 3 8 17 53
32 100 15 47 29 92 32 100 9 21 8 20 23 73 15 58 31 60 109 13 58 -36 151
-115 151 -129 0 -13 27 -37 43 -37 25 0 89 81 102 130 0 3 5 16 9 30 11 31 13
140 3 140 -4 0 -6 5 -5 11 3 11 -98 68 -192 108 -30 13 -63 27 -73 32 -10 6
-22 7 -27 4 -15 -9 -12 25 7 86 9 30 17 56 18 59 17 70 17 71 -7 91 -31 28
-74 50 -82 42 -3 -4 -6 0 -6 7 0 7 -3 10 -6 7 -4 -3 -16 -1 -28 5 -31 16 -67
18 -72 4z m-131 -486 c23 -2 22 -20 -9 -137 -15 -54 -28 -105 -29 -113 -2 -8
-4 -15 -5 -15 -1 0 -3 -7 -5 -15 -2 -8 -13 -51 -25 -95 -11 -44 -22 -85 -24
-92 -1 -7 -5 -15 -9 -19 -8 -8 -77 23 -77 35 0 4 -8 12 -19 17 -28 14 -78 54
-130 105 -77 77 -97 109 -92 142 0 4 -3 7 -7 7 -7 0 -8 22 -3 62 1 11 64 74
76 77 6 2 21 8 35 13 14 6 38 12 54 15 16 2 38 8 49 12 17 6 85 6 220 1z m37
-831 c0 -4 19 -17 42 -29 69 -36 174 -122 227 -186 19 -22 40 -83 40 -114 1
-34 -31 -100 -60 -127 -44 -39 -91 -61 -174 -79 -28 -7 -182 -5 -208 1 -12 3
-33 7 -47 9 -55 7 -79 18 -75 34 8 35 44 136 93 257 11 28 20 52 20 55 0 3 5
18 11 33 6 15 14 40 17 55 4 15 10 32 14 37 5 6 10 21 12 35 5 40 17 47 55 36
18 -6 33 -14 33 -17z"/>
</g>
</svg>
